<mxfile host="app.diagrams.net" modified="2020-11-22T14:51:16.277Z" agent="5.0 (Windows NT 6.3; Win64; x64) AppleWebKit/537.36 (KHTML, like Gecko) Chrome/87.0.4280.66 Safari/537.36" etag="H4X7f3EPc3ZhiL4gqjaw" version="13.9.9" type="github">
  <diagram id="AU8_u6TGxyYnSnQz8SQ1" name="Page-1">
    <mxGraphModel dx="868" dy="2050" grid="1" gridSize="10" guides="1" tooltips="1" connect="1" arrows="1" fold="1" page="1" pageScale="1" pageWidth="900" pageHeight="1600" math="0" shadow="0">
      <root>
        <mxCell id="0" />
        <mxCell id="1" parent="0" />
        <mxCell id="uCNqZW0QOo5ajuXo0y57-1" value="Ticket" style="swimlane;fontStyle=1;align=center;verticalAlign=top;childLayout=stackLayout;horizontal=1;startSize=26;horizontalStack=0;resizeParent=1;resizeParentMax=0;resizeLast=0;collapsible=1;marginBottom=0;" vertex="1" parent="1">
          <mxGeometry x="420" y="110" width="170" height="248" as="geometry" />
        </mxCell>
        <mxCell id="uCNqZW0QOo5ajuXo0y57-2" value="+ pnr : String&#xa;+ from : StringÂ &#xa;+ t0 : String&#xa;+ flight : Flight&#xa;+ departureDateTime: String&#xa;+ arrivalDateTime : String&#xa;+ passenger : Passenger&#xa;+ seatNo : String&#xa;+ price : float&#xa;+ cancelled : boolean" style="text;strokeColor=none;fillColor=none;align=left;verticalAlign=top;spacingLeft=4;spacingRight=4;overflow=hidden;rotatable=0;points=[[0,0.5],[1,0.5]];portConstraint=eastwest;" vertex="1" parent="uCNqZW0QOo5ajuXo0y57-1">
          <mxGeometry y="26" width="170" height="154" as="geometry" />
        </mxCell>
        <mxCell id="uCNqZW0QOo5ajuXo0y57-3" value="" style="line;strokeWidth=1;fillColor=none;align=left;verticalAlign=middle;spacingTop=-1;spacingLeft=3;spacingRight=3;rotatable=0;labelPosition=right;points=[];portConstraint=eastwest;" vertex="1" parent="uCNqZW0QOo5ajuXo0y57-1">
          <mxGeometry y="180" width="170" height="8" as="geometry" />
        </mxCell>
        <mxCell id="uCNqZW0QOo5ajuXo0y57-4" value="+ checkStatus() : String&#xa;+ getFlightDuration() : int&#xa;+ cancel() : void" style="text;strokeColor=none;fillColor=none;align=left;verticalAlign=top;spacingLeft=4;spacingRight=4;overflow=hidden;rotatable=0;points=[[0,0.5],[1,0.5]];portConstraint=eastwest;" vertex="1" parent="uCNqZW0QOo5ajuXo0y57-1">
          <mxGeometry y="188" width="170" height="60" as="geometry" />
        </mxCell>
        <mxCell id="uCNqZW0QOo5ajuXo0y57-5" value="Flight" style="swimlane;fontStyle=1;align=center;verticalAlign=top;childLayout=stackLayout;horizontal=1;startSize=26;horizontalStack=0;resizeParent=1;resizeParentMax=0;resizeLast=0;collapsible=1;marginBottom=0;" vertex="1" parent="1">
          <mxGeometry x="100" y="110" width="210" height="166" as="geometry" />
        </mxCell>
        <mxCell id="uCNqZW0QOo5ajuXo0y57-6" value="+ flightNumber : String&#xa;+ airline : String&#xa;+ capacity : int&#xa;+bookedSeat : int" style="text;strokeColor=none;fillColor=none;align=left;verticalAlign=top;spacingLeft=4;spacingRight=4;overflow=hidden;rotatable=0;points=[[0,0.5],[1,0.5]];portConstraint=eastwest;" vertex="1" parent="uCNqZW0QOo5ajuXo0y57-5">
          <mxGeometry y="26" width="210" height="70" as="geometry" />
        </mxCell>
        <mxCell id="uCNqZW0QOo5ajuXo0y57-7" value="" style="line;strokeWidth=1;fillColor=none;align=left;verticalAlign=middle;spacingTop=-1;spacingLeft=3;spacingRight=3;rotatable=0;labelPosition=right;points=[];portConstraint=eastwest;" vertex="1" parent="uCNqZW0QOo5ajuXo0y57-5">
          <mxGeometry y="96" width="210" height="8" as="geometry" />
        </mxCell>
        <mxCell id="uCNqZW0QOo5ajuXo0y57-8" value="+ checkAvalibily() : boolean&#xa;+ getFlightDetails() : String&#xa;+ increamentBookingCounter() : void" style="text;strokeColor=none;fillColor=none;align=left;verticalAlign=top;spacingLeft=4;spacingRight=4;overflow=hidden;rotatable=0;points=[[0,0.5],[1,0.5]];portConstraint=eastwest;" vertex="1" parent="uCNqZW0QOo5ajuXo0y57-5">
          <mxGeometry y="104" width="210" height="62" as="geometry" />
        </mxCell>
        <mxCell id="uCNqZW0QOo5ajuXo0y57-9" value="Address" style="swimlane;fontStyle=1;align=center;verticalAlign=top;childLayout=stackLayout;horizontal=1;startSize=26;horizontalStack=0;resizeParent=1;resizeParentMax=0;resizeLast=0;collapsible=1;marginBottom=0;" vertex="1" parent="1">
          <mxGeometry x="680" y="-100" width="310" height="130" as="geometry" />
        </mxCell>
        <mxCell id="uCNqZW0QOo5ajuXo0y57-10" value="+ street : String&#xa;+ city : String&#xa;+ state : String" style="text;strokeColor=none;fillColor=none;align=left;verticalAlign=top;spacingLeft=4;spacingRight=4;overflow=hidden;rotatable=0;points=[[0,0.5],[1,0.5]];portConstraint=eastwest;" vertex="1" parent="uCNqZW0QOo5ajuXo0y57-9">
          <mxGeometry y="26" width="310" height="54" as="geometry" />
        </mxCell>
        <mxCell id="uCNqZW0QOo5ajuXo0y57-11" value="" style="line;strokeWidth=1;fillColor=none;align=left;verticalAlign=middle;spacingTop=-1;spacingLeft=3;spacingRight=3;rotatable=0;labelPosition=right;points=[];portConstraint=eastwest;" vertex="1" parent="uCNqZW0QOo5ajuXo0y57-9">
          <mxGeometry y="80" width="310" height="8" as="geometry" />
        </mxCell>
        <mxCell id="uCNqZW0QOo5ajuXo0y57-12" value="+ getAddressDetails() : String&#xa;+ updateAddressDetails(addressDetails : String) : void" style="text;strokeColor=none;fillColor=none;align=left;verticalAlign=top;spacingLeft=4;spacingRight=4;overflow=hidden;rotatable=0;points=[[0,0.5],[1,0.5]];portConstraint=eastwest;" vertex="1" parent="uCNqZW0QOo5ajuXo0y57-9">
          <mxGeometry y="88" width="310" height="42" as="geometry" />
        </mxCell>
        <mxCell id="uCNqZW0QOo5ajuXo0y57-13" value="Passenger" style="swimlane;fontStyle=1;align=center;verticalAlign=top;childLayout=stackLayout;horizontal=1;startSize=26;horizontalStack=0;resizeParent=1;resizeParentMax=0;resizeLast=0;collapsible=1;marginBottom=0;" vertex="1" parent="1">
          <mxGeometry x="425" y="-90" width="160" height="130" as="geometry" />
        </mxCell>
        <mxCell id="uCNqZW0QOo5ajuXo0y57-14" value="+ id : int&#xa;+ address : Address&#xa;+ contact : Contact" style="text;strokeColor=none;fillColor=none;align=left;verticalAlign=top;spacingLeft=4;spacingRight=4;overflow=hidden;rotatable=0;points=[[0,0.5],[1,0.5]];portConstraint=eastwest;" vertex="1" parent="uCNqZW0QOo5ajuXo0y57-13">
          <mxGeometry y="26" width="160" height="54" as="geometry" />
        </mxCell>
        <mxCell id="uCNqZW0QOo5ajuXo0y57-15" value="" style="line;strokeWidth=1;fillColor=none;align=left;verticalAlign=middle;spacingTop=-1;spacingLeft=3;spacingRight=3;rotatable=0;labelPosition=right;points=[];portConstraint=eastwest;" vertex="1" parent="uCNqZW0QOo5ajuXo0y57-13">
          <mxGeometry y="80" width="160" height="8" as="geometry" />
        </mxCell>
        <mxCell id="uCNqZW0QOo5ajuXo0y57-16" value="+ getContact() : Contact&#xa;+ getAddress() : Address" style="text;strokeColor=none;fillColor=none;align=left;verticalAlign=top;spacingLeft=4;spacingRight=4;overflow=hidden;rotatable=0;points=[[0,0.5],[1,0.5]];portConstraint=eastwest;" vertex="1" parent="uCNqZW0QOo5ajuXo0y57-13">
          <mxGeometry y="88" width="160" height="42" as="geometry" />
        </mxCell>
        <mxCell id="uCNqZW0QOo5ajuXo0y57-17" value="Contact" style="swimlane;fontStyle=1;align=center;verticalAlign=top;childLayout=stackLayout;horizontal=1;startSize=26;horizontalStack=0;resizeParent=1;resizeParentMax=0;resizeLast=0;collapsible=1;marginBottom=0;" vertex="1" parent="1">
          <mxGeometry x="50" y="-90" width="310" height="130" as="geometry" />
        </mxCell>
        <mxCell id="uCNqZW0QOo5ajuXo0y57-18" value="+ name : String&#xa;+ phone : String&#xa;+ email : String" style="text;strokeColor=none;fillColor=none;align=left;verticalAlign=top;spacingLeft=4;spacingRight=4;overflow=hidden;rotatable=0;points=[[0,0.5],[1,0.5]];portConstraint=eastwest;" vertex="1" parent="uCNqZW0QOo5ajuXo0y57-17">
          <mxGeometry y="26" width="310" height="54" as="geometry" />
        </mxCell>
        <mxCell id="uCNqZW0QOo5ajuXo0y57-19" value="" style="line;strokeWidth=1;fillColor=none;align=left;verticalAlign=middle;spacingTop=-1;spacingLeft=3;spacingRight=3;rotatable=0;labelPosition=right;points=[];portConstraint=eastwest;" vertex="1" parent="uCNqZW0QOo5ajuXo0y57-17">
          <mxGeometry y="80" width="310" height="8" as="geometry" />
        </mxCell>
        <mxCell id="uCNqZW0QOo5ajuXo0y57-20" value="+ getContactDetails() : String&#xa;+ updateContactDetails(contactDetails : String) : void" style="text;strokeColor=none;fillColor=none;align=left;verticalAlign=top;spacingLeft=4;spacingRight=4;overflow=hidden;rotatable=0;points=[[0,0.5],[1,0.5]];portConstraint=eastwest;" vertex="1" parent="uCNqZW0QOo5ajuXo0y57-17">
          <mxGeometry y="88" width="310" height="42" as="geometry" />
        </mxCell>
        <mxCell id="uCNqZW0QOo5ajuXo0y57-21" value="RegularTickets" style="swimlane;fontStyle=1;align=center;verticalAlign=top;childLayout=stackLayout;horizontal=1;startSize=26;horizontalStack=0;resizeParent=1;resizeParentMax=0;resizeLast=0;collapsible=1;marginBottom=0;" vertex="1" parent="1">
          <mxGeometry x="90" y="440" width="310" height="100" as="geometry" />
        </mxCell>
        <mxCell id="uCNqZW0QOo5ajuXo0y57-22" value="+ specialServices : String&#xa;" style="text;strokeColor=none;fillColor=none;align=left;verticalAlign=top;spacingLeft=4;spacingRight=4;overflow=hidden;rotatable=0;points=[[0,0.5],[1,0.5]];portConstraint=eastwest;" vertex="1" parent="uCNqZW0QOo5ajuXo0y57-21">
          <mxGeometry y="26" width="310" height="24" as="geometry" />
        </mxCell>
        <mxCell id="uCNqZW0QOo5ajuXo0y57-23" value="" style="line;strokeWidth=1;fillColor=none;align=left;verticalAlign=middle;spacingTop=-1;spacingLeft=3;spacingRight=3;rotatable=0;labelPosition=right;points=[];portConstraint=eastwest;" vertex="1" parent="uCNqZW0QOo5ajuXo0y57-21">
          <mxGeometry y="50" width="310" height="8" as="geometry" />
        </mxCell>
        <mxCell id="uCNqZW0QOo5ajuXo0y57-24" value="+ getSpecialServices() : String&#xa;+ updateSpecialServices(specialServices : String) : void" style="text;strokeColor=none;fillColor=none;align=left;verticalAlign=top;spacingLeft=4;spacingRight=4;overflow=hidden;rotatable=0;points=[[0,0.5],[1,0.5]];portConstraint=eastwest;" vertex="1" parent="uCNqZW0QOo5ajuXo0y57-21">
          <mxGeometry y="58" width="310" height="42" as="geometry" />
        </mxCell>
        <mxCell id="uCNqZW0QOo5ajuXo0y57-25" value="TouristTicket" style="swimlane;fontStyle=1;align=center;verticalAlign=top;childLayout=stackLayout;horizontal=1;startSize=26;horizontalStack=0;resizeParent=1;resizeParentMax=0;resizeLast=0;collapsible=1;marginBottom=0;" vertex="1" parent="1">
          <mxGeometry x="620" y="440" width="270" height="140" as="geometry" />
        </mxCell>
        <mxCell id="uCNqZW0QOo5ajuXo0y57-26" value="+ hotelAddress : String&#xa;+ selectedTouristLocation : String[0..5]" style="text;strokeColor=none;fillColor=none;align=left;verticalAlign=top;spacingLeft=4;spacingRight=4;overflow=hidden;rotatable=0;points=[[0,0.5],[1,0.5]];portConstraint=eastwest;" vertex="1" parent="uCNqZW0QOo5ajuXo0y57-25">
          <mxGeometry y="26" width="270" height="44" as="geometry" />
        </mxCell>
        <mxCell id="uCNqZW0QOo5ajuXo0y57-27" value="" style="line;strokeWidth=1;fillColor=none;align=left;verticalAlign=middle;spacingTop=-1;spacingLeft=3;spacingRight=3;rotatable=0;labelPosition=right;points=[];portConstraint=eastwest;" vertex="1" parent="uCNqZW0QOo5ajuXo0y57-25">
          <mxGeometry y="70" width="270" height="8" as="geometry" />
        </mxCell>
        <mxCell id="uCNqZW0QOo5ajuXo0y57-28" value="+ getHotelAddress() : String&#xa;+ getTouristLocation() : String[0..5]&#xa;+ removeTouristLocation(location : String) : void&#xa;+ addTouristLocation(location : String) : voidÂ " style="text;strokeColor=none;fillColor=none;align=left;verticalAlign=top;spacingLeft=4;spacingRight=4;overflow=hidden;rotatable=0;points=[[0,0.5],[1,0.5]];portConstraint=eastwest;" vertex="1" parent="uCNqZW0QOo5ajuXo0y57-25">
          <mxGeometry y="78" width="270" height="62" as="geometry" />
        </mxCell>
        <mxCell id="uCNqZW0QOo5ajuXo0y57-30" value="return" style="verticalAlign=bottom;endArrow=block;endSize=8;exitX=0.25;exitY=0;exitDx=0;exitDy=0;entryX=0.535;entryY=1.067;entryDx=0;entryDy=0;entryPerimeter=0;endFill=0;html=1;fontSize=1;" edge="1" parent="1" source="uCNqZW0QOo5ajuXo0y57-25" target="uCNqZW0QOo5ajuXo0y57-4">
          <mxGeometry relative="1" as="geometry">
            <mxPoint x="510" y="500" as="sourcePoint" />
            <mxPoint x="430" y="500" as="targetPoint" />
          </mxGeometry>
        </mxCell>
        <mxCell id="uCNqZW0QOo5ajuXo0y57-31" value="return" style="html=1;verticalAlign=bottom;endArrow=block;endSize=8;fontSize=1;fontColor=#FFFFFF;exitX=0.716;exitY=-0.02;exitDx=0;exitDy=0;exitPerimeter=0;entryX=0.294;entryY=1.033;entryDx=0;entryDy=0;entryPerimeter=0;endFill=0;" edge="1" parent="1" source="uCNqZW0QOo5ajuXo0y57-21" target="uCNqZW0QOo5ajuXo0y57-4">
          <mxGeometry relative="1" as="geometry">
            <mxPoint x="510" y="500" as="sourcePoint" />
            <mxPoint x="430" y="500" as="targetPoint" />
          </mxGeometry>
        </mxCell>
        <mxCell id="uCNqZW0QOo5ajuXo0y57-32" value="" style="endArrow=diamondThin;endFill=0;endSize=24;html=1;fontSize=6;exitX=0.995;exitY=0.771;exitDx=0;exitDy=0;exitPerimeter=0;entryX=-0.012;entryY=0.357;entryDx=0;entryDy=0;entryPerimeter=0;" edge="1" parent="1" source="uCNqZW0QOo5ajuXo0y57-6" target="uCNqZW0QOo5ajuXo0y57-2">
          <mxGeometry width="160" relative="1" as="geometry">
            <mxPoint x="390" y="100" as="sourcePoint" />
            <mxPoint x="550" y="100" as="targetPoint" />
          </mxGeometry>
        </mxCell>
        <mxCell id="uCNqZW0QOo5ajuXo0y57-33" value="" style="endArrow=diamondThin;endFill=0;endSize=24;html=1;fontSize=6;fontColor=#000000;" edge="1" parent="1" source="uCNqZW0QOo5ajuXo0y57-16" target="uCNqZW0QOo5ajuXo0y57-1">
          <mxGeometry width="160" relative="1" as="geometry">
            <mxPoint x="390" y="100" as="sourcePoint" />
            <mxPoint x="550" y="100" as="targetPoint" />
          </mxGeometry>
        </mxCell>
        <mxCell id="uCNqZW0QOo5ajuXo0y57-34" value="" style="endArrow=diamondThin;endFill=1;endSize=24;html=1;fontSize=6;fontColor=#000000;exitX=0.997;exitY=0.87;exitDx=0;exitDy=0;exitPerimeter=0;" edge="1" parent="1" source="uCNqZW0QOo5ajuXo0y57-18">
          <mxGeometry width="160" relative="1" as="geometry">
            <mxPoint x="390" y="100" as="sourcePoint" />
            <mxPoint x="420" y="-17" as="targetPoint" />
          </mxGeometry>
        </mxCell>
        <mxCell id="uCNqZW0QOo5ajuXo0y57-36" value="" style="endArrow=diamondThin;endFill=1;endSize=24;html=1;fontSize=6;fontColor=#000000;entryX=1.013;entryY=0.759;entryDx=0;entryDy=0;entryPerimeter=0;exitX=0.003;exitY=0.907;exitDx=0;exitDy=0;exitPerimeter=0;" edge="1" parent="1" source="uCNqZW0QOo5ajuXo0y57-10" target="uCNqZW0QOo5ajuXo0y57-14">
          <mxGeometry width="160" relative="1" as="geometry">
            <mxPoint x="390" y="100" as="sourcePoint" />
            <mxPoint x="550" y="100" as="targetPoint" />
          </mxGeometry>
        </mxCell>
      </root>
    </mxGraphModel>
  </diagram>
</mxfile>
